<mxfile host="Electron" modified="2024-02-07T21:43:36.668Z" agent="Mozilla/5.0 (X11; Linux x86_64) AppleWebKit/537.36 (KHTML, like Gecko) draw.io/23.0.2 Chrome/120.0.6099.109 Electron/28.2.1 Safari/537.36" etag="DgKHEtaI1U7v__oF2boG" version="23.0.2" type="device" pages="3">
  <diagram name="Requirments" id="1j62XyV0qbTXG2bxYFV4">
    <mxGraphModel dx="1615" dy="952" grid="1" gridSize="10" guides="1" tooltips="1" connect="1" arrows="1" fold="1" page="1" pageScale="1" pageWidth="1169" pageHeight="827" math="0" shadow="0">
      <root>
        <mxCell id="0" />
        <mxCell id="1" parent="0" />
        <mxCell id="kJTFWKWKMK8fA1u3CU_h-1" value="" style="rounded=0;whiteSpace=wrap;html=1;fillColor=none;fontSize=16;" parent="1" vertex="1">
          <mxGeometry x="364" y="134" width="360" height="160" as="geometry" />
        </mxCell>
        <mxCell id="kJTFWKWKMK8fA1u3CU_h-2" value="ООП" style="text;html=1;strokeColor=none;fillColor=none;align=center;verticalAlign=middle;whiteSpace=wrap;rounded=0;fontSize=20;" parent="1" vertex="1">
          <mxGeometry x="524" y="144" width="60" height="30" as="geometry" />
        </mxCell>
        <mxCell id="kJTFWKWKMK8fA1u3CU_h-3" value="Traits" style="rounded=0;whiteSpace=wrap;html=1;fillColor=none;fontSize=16;" parent="1" vertex="1">
          <mxGeometry x="404" y="214" width="120" height="40" as="geometry" />
        </mxCell>
        <mxCell id="kJTFWKWKMK8fA1u3CU_h-4" value="RAII" style="rounded=0;whiteSpace=wrap;html=1;fillColor=none;fontSize=16;" parent="1" vertex="1">
          <mxGeometry x="574" y="214" width="110" height="40" as="geometry" />
        </mxCell>
        <mxCell id="kJTFWKWKMK8fA1u3CU_h-7" style="edgeStyle=orthogonalEdgeStyle;rounded=0;orthogonalLoop=1;jettySize=auto;html=1;exitX=1;exitY=0.5;exitDx=0;exitDy=0;" parent="1" source="kJTFWKWKMK8fA1u3CU_h-5" target="kJTFWKWKMK8fA1u3CU_h-6" edge="1">
          <mxGeometry relative="1" as="geometry" />
        </mxCell>
        <mxCell id="kJTFWKWKMK8fA1u3CU_h-5" value="Exceptions" style="rounded=0;whiteSpace=wrap;html=1;fillColor=none;fontSize=16;" parent="1" vertex="1">
          <mxGeometry x="364" y="334" width="120" height="40" as="geometry" />
        </mxCell>
        <mxCell id="kJTFWKWKMK8fA1u3CU_h-11" style="rounded=0;orthogonalLoop=1;jettySize=auto;html=1;exitX=0.25;exitY=1;exitDx=0;exitDy=0;entryX=0.5;entryY=0;entryDx=0;entryDy=0;" parent="1" source="kJTFWKWKMK8fA1u3CU_h-6" target="kJTFWKWKMK8fA1u3CU_h-9" edge="1">
          <mxGeometry relative="1" as="geometry" />
        </mxCell>
        <mxCell id="kJTFWKWKMK8fA1u3CU_h-12" style="rounded=0;orthogonalLoop=1;jettySize=auto;html=1;exitX=0.75;exitY=1;exitDx=0;exitDy=0;entryX=0.5;entryY=0;entryDx=0;entryDy=0;" parent="1" source="kJTFWKWKMK8fA1u3CU_h-6" target="kJTFWKWKMK8fA1u3CU_h-10" edge="1">
          <mxGeometry relative="1" as="geometry" />
        </mxCell>
        <mxCell id="kJTFWKWKMK8fA1u3CU_h-6" value="Algebraic types" style="rounded=0;whiteSpace=wrap;html=1;fillColor=none;fontSize=16;" parent="1" vertex="1">
          <mxGeometry x="604" y="334" width="120" height="40" as="geometry" />
        </mxCell>
        <mxCell id="kJTFWKWKMK8fA1u3CU_h-9" value="Option" style="rounded=0;whiteSpace=wrap;html=1;fillColor=none;fontSize=16;" parent="1" vertex="1">
          <mxGeometry x="524" y="414" width="120" height="40" as="geometry" />
        </mxCell>
        <mxCell id="kJTFWKWKMK8fA1u3CU_h-10" value="Result" style="rounded=0;whiteSpace=wrap;html=1;fillColor=none;fontSize=16;" parent="1" vertex="1">
          <mxGeometry x="684" y="414" width="120" height="40" as="geometry" />
        </mxCell>
        <mxCell id="kJTFWKWKMK8fA1u3CU_h-14" value="IFACE1" style="rounded=0;whiteSpace=wrap;html=1;fillColor=none;fontSize=16;" parent="1" vertex="1">
          <mxGeometry x="364" y="494" width="360" height="80" as="geometry" />
        </mxCell>
        <mxCell id="kJTFWKWKMK8fA1u3CU_h-16" style="edgeStyle=orthogonalEdgeStyle;rounded=0;orthogonalLoop=1;jettySize=auto;html=1;exitX=0.25;exitY=0;exitDx=0;exitDy=0;entryX=0.25;entryY=1;entryDx=0;entryDy=0;" parent="1" source="kJTFWKWKMK8fA1u3CU_h-15" target="kJTFWKWKMK8fA1u3CU_h-14" edge="1">
          <mxGeometry relative="1" as="geometry" />
        </mxCell>
        <mxCell id="kJTFWKWKMK8fA1u3CU_h-17" style="edgeStyle=orthogonalEdgeStyle;rounded=0;orthogonalLoop=1;jettySize=auto;html=1;exitX=0.75;exitY=0;exitDx=0;exitDy=0;entryX=0.75;entryY=1;entryDx=0;entryDy=0;" parent="1" source="kJTFWKWKMK8fA1u3CU_h-15" target="kJTFWKWKMK8fA1u3CU_h-14" edge="1">
          <mxGeometry relative="1" as="geometry" />
        </mxCell>
        <mxCell id="kJTFWKWKMK8fA1u3CU_h-18" style="edgeStyle=orthogonalEdgeStyle;rounded=0;orthogonalLoop=1;jettySize=auto;html=1;exitX=0.5;exitY=0;exitDx=0;exitDy=0;entryX=0.5;entryY=1;entryDx=0;entryDy=0;" parent="1" source="kJTFWKWKMK8fA1u3CU_h-15" target="kJTFWKWKMK8fA1u3CU_h-14" edge="1">
          <mxGeometry relative="1" as="geometry" />
        </mxCell>
        <mxCell id="kJTFWKWKMK8fA1u3CU_h-15" value="IFACE0" style="rounded=0;whiteSpace=wrap;html=1;fillColor=none;fontSize=16;" parent="1" vertex="1">
          <mxGeometry x="364" y="614" width="360" height="80" as="geometry" />
        </mxCell>
      </root>
    </mxGraphModel>
  </diagram>
  <diagram id="J9k8MECrl9epbTI_4q9m" name="Engine">
    <mxGraphModel dx="2625" dy="1548" grid="1" gridSize="10" guides="1" tooltips="1" connect="1" arrows="1" fold="1" page="1" pageScale="1" pageWidth="1169" pageHeight="827" math="0" shadow="0">
      <root>
        <mxCell id="0" />
        <mxCell id="1" parent="0" />
        <mxCell id="dqQnfEsxup0tu6viVDps-7" style="edgeStyle=orthogonalEdgeStyle;rounded=0;orthogonalLoop=1;jettySize=auto;html=1;exitX=1;exitY=0.5;exitDx=0;exitDy=0;entryX=0.5;entryY=1;entryDx=0;entryDy=0;" edge="1" parent="1" source="fjMYn2aIfL-d99SmjuQ4-1" target="fjMYn2aIfL-d99SmjuQ4-7">
          <mxGeometry relative="1" as="geometry">
            <Array as="points">
              <mxPoint x="899" y="214" />
              <mxPoint x="899" y="654" />
              <mxPoint x="759" y="654" />
            </Array>
          </mxGeometry>
        </mxCell>
        <mxCell id="fjMYn2aIfL-d99SmjuQ4-1" value="SDL2" style="rounded=0;whiteSpace=wrap;html=1;fillColor=none;fontSize=16;fontStyle=1" parent="1" vertex="1">
          <mxGeometry x="659" y="174" width="200" height="80" as="geometry" />
        </mxCell>
        <mxCell id="fjMYn2aIfL-d99SmjuQ4-14" style="edgeStyle=orthogonalEdgeStyle;rounded=0;orthogonalLoop=1;jettySize=auto;html=1;exitX=0.5;exitY=0;exitDx=0;exitDy=0;entryX=0.5;entryY=1;entryDx=0;entryDy=0;startArrow=classic;startFill=1;" parent="1" source="fjMYn2aIfL-d99SmjuQ4-3" target="fjMYn2aIfL-d99SmjuQ4-1" edge="1">
          <mxGeometry relative="1" as="geometry" />
        </mxCell>
        <mxCell id="fjMYn2aIfL-d99SmjuQ4-18" style="edgeStyle=orthogonalEdgeStyle;rounded=0;orthogonalLoop=1;jettySize=auto;html=1;exitX=0.25;exitY=1;exitDx=0;exitDy=0;entryX=0.25;entryY=0;entryDx=0;entryDy=0;" parent="1" source="fjMYn2aIfL-d99SmjuQ4-3" target="fjMYn2aIfL-d99SmjuQ4-4" edge="1">
          <mxGeometry relative="1" as="geometry" />
        </mxCell>
        <mxCell id="fjMYn2aIfL-d99SmjuQ4-3" value="System Windowing" style="rounded=0;whiteSpace=wrap;html=1;fillColor=none;fontSize=16;fontStyle=1" parent="1" vertex="1">
          <mxGeometry x="659" y="294" width="200" height="80" as="geometry" />
        </mxCell>
        <mxCell id="fjMYn2aIfL-d99SmjuQ4-8" style="edgeStyle=orthogonalEdgeStyle;rounded=0;orthogonalLoop=1;jettySize=auto;html=1;exitX=0;exitY=0.25;exitDx=0;exitDy=0;entryX=1;entryY=0.25;entryDx=0;entryDy=0;" parent="1" source="fjMYn2aIfL-d99SmjuQ4-4" target="fjMYn2aIfL-d99SmjuQ4-5" edge="1">
          <mxGeometry relative="1" as="geometry" />
        </mxCell>
        <mxCell id="fjMYn2aIfL-d99SmjuQ4-17" style="edgeStyle=orthogonalEdgeStyle;rounded=0;orthogonalLoop=1;jettySize=auto;html=1;exitX=0.75;exitY=0;exitDx=0;exitDy=0;entryX=0.75;entryY=1;entryDx=0;entryDy=0;" parent="1" source="fjMYn2aIfL-d99SmjuQ4-4" target="fjMYn2aIfL-d99SmjuQ4-3" edge="1">
          <mxGeometry relative="1" as="geometry" />
        </mxCell>
        <mxCell id="fjMYn2aIfL-d99SmjuQ4-4" value="X" style="rounded=0;whiteSpace=wrap;html=1;fillColor=#fff2cc;fontSize=16;fontStyle=1;strokeColor=#d6b656;align=center;" parent="1" vertex="1">
          <mxGeometry x="659" y="414" width="200" height="80" as="geometry" />
        </mxCell>
        <mxCell id="fjMYn2aIfL-d99SmjuQ4-9" style="edgeStyle=orthogonalEdgeStyle;rounded=0;orthogonalLoop=1;jettySize=auto;html=1;exitX=1;exitY=0.75;exitDx=0;exitDy=0;entryX=0;entryY=0.75;entryDx=0;entryDy=0;" parent="1" source="fjMYn2aIfL-d99SmjuQ4-5" target="fjMYn2aIfL-d99SmjuQ4-4" edge="1">
          <mxGeometry relative="1" as="geometry" />
        </mxCell>
        <mxCell id="fjMYn2aIfL-d99SmjuQ4-21" style="edgeStyle=orthogonalEdgeStyle;rounded=0;orthogonalLoop=1;jettySize=auto;html=1;exitX=0.5;exitY=0;exitDx=0;exitDy=0;entryX=0.5;entryY=1;entryDx=0;entryDy=0;" parent="1" source="fjMYn2aIfL-d99SmjuQ4-5" target="fjMYn2aIfL-d99SmjuQ4-6" edge="1">
          <mxGeometry relative="1" as="geometry" />
        </mxCell>
        <mxCell id="fjMYn2aIfL-d99SmjuQ4-5" value="Event Listener/Handler&lt;br&gt;Subsystem" style="rounded=0;whiteSpace=wrap;html=1;fillColor=#d5e8d4;fontSize=16;fontStyle=1;strokeColor=#82b366;" parent="1" vertex="1">
          <mxGeometry x="419" y="414" width="200" height="80" as="geometry" />
        </mxCell>
        <mxCell id="fjMYn2aIfL-d99SmjuQ4-11" style="edgeStyle=orthogonalEdgeStyle;rounded=0;orthogonalLoop=1;jettySize=auto;html=1;exitX=0.5;exitY=0;exitDx=0;exitDy=0;entryX=0;entryY=0.5;entryDx=0;entryDy=0;startArrow=classic;startFill=1;" parent="1" source="fjMYn2aIfL-d99SmjuQ4-6" target="fjMYn2aIfL-d99SmjuQ4-1" edge="1">
          <mxGeometry relative="1" as="geometry" />
        </mxCell>
        <mxCell id="fjMYn2aIfL-d99SmjuQ4-6" value="Audio Subsystem" style="rounded=0;whiteSpace=wrap;html=1;fillColor=none;fontSize=16;fontStyle=1" parent="1" vertex="1">
          <mxGeometry x="419" y="294" width="200" height="80" as="geometry" />
        </mxCell>
        <mxCell id="fjMYn2aIfL-d99SmjuQ4-13" style="edgeStyle=orthogonalEdgeStyle;rounded=0;orthogonalLoop=1;jettySize=auto;html=1;exitX=0.5;exitY=0;exitDx=0;exitDy=0;entryX=0.5;entryY=1;entryDx=0;entryDy=0;" parent="1" source="fjMYn2aIfL-d99SmjuQ4-7" target="fjMYn2aIfL-d99SmjuQ4-4" edge="1">
          <mxGeometry relative="1" as="geometry" />
        </mxCell>
        <mxCell id="fjMYn2aIfL-d99SmjuQ4-15" style="edgeStyle=orthogonalEdgeStyle;rounded=0;orthogonalLoop=1;jettySize=auto;html=1;exitX=0;exitY=0.5;exitDx=0;exitDy=0;entryX=0.75;entryY=1;entryDx=0;entryDy=0;" parent="1" source="fjMYn2aIfL-d99SmjuQ4-7" target="fjMYn2aIfL-d99SmjuQ4-5" edge="1">
          <mxGeometry relative="1" as="geometry" />
        </mxCell>
        <mxCell id="fjMYn2aIfL-d99SmjuQ4-7" value="Input Subsystem" style="rounded=0;whiteSpace=wrap;html=1;fillColor=none;fontSize=16;fontStyle=1" parent="1" vertex="1">
          <mxGeometry x="659" y="534" width="200" height="80" as="geometry" />
        </mxCell>
        <mxCell id="dqQnfEsxup0tu6viVDps-10" style="edgeStyle=orthogonalEdgeStyle;rounded=0;orthogonalLoop=1;jettySize=auto;html=1;exitX=0.5;exitY=0;exitDx=0;exitDy=0;entryX=0;entryY=0.5;entryDx=0;entryDy=0;" edge="1" parent="1" source="fjMYn2aIfL-d99SmjuQ4-19" target="fjMYn2aIfL-d99SmjuQ4-5">
          <mxGeometry relative="1" as="geometry" />
        </mxCell>
        <mxCell id="fjMYn2aIfL-d99SmjuQ4-19" value="Networking Subsystem" style="rounded=0;whiteSpace=wrap;html=1;fillColor=none;fontSize=16;fontStyle=1" parent="1" vertex="1">
          <mxGeometry x="269" y="534" width="200" height="80" as="geometry" />
        </mxCell>
      </root>
    </mxGraphModel>
  </diagram>
  <diagram id="KiTohrvjBOwn8ShGPHtV" name="Windowing hierarchy">
    <mxGraphModel dx="1358" dy="687" grid="1" gridSize="10" guides="1" tooltips="1" connect="1" arrows="1" fold="1" page="1" pageScale="1" pageWidth="1654" pageHeight="1169" math="0" shadow="0">
      <root>
        <mxCell id="0" />
        <mxCell id="1" parent="0" />
        <mxCell id="84K2Aqs5wYDGbW6k5flM-26" value="" style="rounded=0;whiteSpace=wrap;html=1;fillColor=none;" vertex="1" parent="1">
          <mxGeometry x="40" y="440" width="560" height="320" as="geometry" />
        </mxCell>
        <mxCell id="uYeV9xBQqyP5TeGIuFBs-29" value="Entity&lt;br&gt;&lt;br&gt;&lt;br&gt;&lt;br&gt;&lt;br&gt;&lt;br&gt;&lt;br&gt;&lt;br&gt;&lt;br&gt;&lt;br&gt;&lt;br&gt;&lt;br&gt;&lt;br&gt;&lt;br&gt;&lt;br&gt;" style="rounded=0;whiteSpace=wrap;html=1;fillColor=none;" vertex="1" parent="1">
          <mxGeometry x="40" y="40" width="600" height="240" as="geometry" />
        </mxCell>
        <mxCell id="84K2Aqs5wYDGbW6k5flM-1" style="edgeStyle=orthogonalEdgeStyle;rounded=0;orthogonalLoop=1;jettySize=auto;html=1;exitX=0.5;exitY=0;exitDx=0;exitDy=0;entryX=0;entryY=0.5;entryDx=0;entryDy=0;" edge="1" parent="1" source="uYeV9xBQqyP5TeGIuFBs-30" target="uYeV9xBQqyP5TeGIuFBs-40">
          <mxGeometry relative="1" as="geometry" />
        </mxCell>
        <mxCell id="uYeV9xBQqyP5TeGIuFBs-30" value="Interactive" style="rounded=0;whiteSpace=wrap;html=1;fillColor=none;" vertex="1" parent="1">
          <mxGeometry x="80" y="200" width="120" height="40" as="geometry" />
        </mxCell>
        <mxCell id="uYeV9xBQqyP5TeGIuFBs-34" style="edgeStyle=orthogonalEdgeStyle;rounded=0;orthogonalLoop=1;jettySize=auto;html=1;exitX=0.5;exitY=0;exitDx=0;exitDy=0;entryX=0.5;entryY=1;entryDx=0;entryDy=0;" edge="1" parent="1" source="uYeV9xBQqyP5TeGIuFBs-33" target="uYeV9xBQqyP5TeGIuFBs-30">
          <mxGeometry relative="1" as="geometry" />
        </mxCell>
        <mxCell id="uYeV9xBQqyP5TeGIuFBs-35" value="interact(Action ...)" style="edgeLabel;html=1;align=center;verticalAlign=middle;resizable=0;points=[];" vertex="1" connectable="0" parent="uYeV9xBQqyP5TeGIuFBs-34">
          <mxGeometry x="-0.1325" y="1" relative="1" as="geometry">
            <mxPoint x="51" y="15" as="offset" />
          </mxGeometry>
        </mxCell>
        <mxCell id="uYeV9xBQqyP5TeGIuFBs-33" value="X" style="rounded=0;whiteSpace=wrap;html=1;fillColor=none;" vertex="1" parent="1">
          <mxGeometry x="80" y="320" width="120" height="40" as="geometry" />
        </mxCell>
        <mxCell id="uYeV9xBQqyP5TeGIuFBs-36" value="Entity" style="rounded=0;whiteSpace=wrap;html=1;fillColor=none;" vertex="1" parent="1">
          <mxGeometry x="480" y="80" width="120" height="40" as="geometry" />
        </mxCell>
        <mxCell id="uYeV9xBQqyP5TeGIuFBs-37" value="Entity" style="rounded=0;whiteSpace=wrap;html=1;fillColor=none;" vertex="1" parent="1">
          <mxGeometry x="480" y="140" width="120" height="40" as="geometry" />
        </mxCell>
        <mxCell id="uYeV9xBQqyP5TeGIuFBs-38" value="Entity" style="rounded=0;whiteSpace=wrap;html=1;fillColor=none;" vertex="1" parent="1">
          <mxGeometry x="480" y="200" width="120" height="40" as="geometry" />
        </mxCell>
        <mxCell id="84K2Aqs5wYDGbW6k5flM-4" style="edgeStyle=orthogonalEdgeStyle;rounded=0;orthogonalLoop=1;jettySize=auto;html=1;exitX=1;exitY=0.5;exitDx=0;exitDy=0;entryX=0;entryY=0.5;entryDx=0;entryDy=0;" edge="1" parent="1" source="uYeV9xBQqyP5TeGIuFBs-40" target="uYeV9xBQqyP5TeGIuFBs-36">
          <mxGeometry relative="1" as="geometry" />
        </mxCell>
        <mxCell id="84K2Aqs5wYDGbW6k5flM-5" style="edgeStyle=orthogonalEdgeStyle;rounded=0;orthogonalLoop=1;jettySize=auto;html=1;exitX=1;exitY=0.5;exitDx=0;exitDy=0;entryX=0;entryY=0.5;entryDx=0;entryDy=0;" edge="1" parent="1" source="uYeV9xBQqyP5TeGIuFBs-40" target="uYeV9xBQqyP5TeGIuFBs-37">
          <mxGeometry relative="1" as="geometry">
            <Array as="points">
              <mxPoint x="380" y="100" />
              <mxPoint x="380" y="160" />
            </Array>
          </mxGeometry>
        </mxCell>
        <mxCell id="84K2Aqs5wYDGbW6k5flM-6" style="edgeStyle=orthogonalEdgeStyle;rounded=0;orthogonalLoop=1;jettySize=auto;html=1;exitX=1;exitY=0.5;exitDx=0;exitDy=0;entryX=0;entryY=0.5;entryDx=0;entryDy=0;" edge="1" parent="1" source="uYeV9xBQqyP5TeGIuFBs-40" target="uYeV9xBQqyP5TeGIuFBs-38">
          <mxGeometry relative="1" as="geometry">
            <Array as="points">
              <mxPoint x="380" y="100" />
              <mxPoint x="380" y="220" />
            </Array>
          </mxGeometry>
        </mxCell>
        <mxCell id="uYeV9xBQqyP5TeGIuFBs-40" value="Internal Logic" style="rounded=0;whiteSpace=wrap;html=1;fillColor=none;" vertex="1" parent="1">
          <mxGeometry x="240" y="80" width="120" height="40" as="geometry" />
        </mxCell>
        <mxCell id="84K2Aqs5wYDGbW6k5flM-3" style="edgeStyle=orthogonalEdgeStyle;rounded=0;orthogonalLoop=1;jettySize=auto;html=1;exitX=0.5;exitY=0;exitDx=0;exitDy=0;entryX=0.5;entryY=1;entryDx=0;entryDy=0;startArrow=classic;startFill=1;" edge="1" parent="1" source="84K2Aqs5wYDGbW6k5flM-2" target="uYeV9xBQqyP5TeGIuFBs-40">
          <mxGeometry relative="1" as="geometry" />
        </mxCell>
        <mxCell id="84K2Aqs5wYDGbW6k5flM-2" value="External Context" style="rounded=0;whiteSpace=wrap;html=1;fillColor=none;" vertex="1" parent="1">
          <mxGeometry x="240" y="200" width="120" height="40" as="geometry" />
        </mxCell>
        <mxCell id="84K2Aqs5wYDGbW6k5flM-7" value="interact(Action ...)" style="edgeLabel;html=1;align=center;verticalAlign=middle;resizable=0;points=[];" vertex="1" connectable="0" parent="1">
          <mxGeometry x="430" y="210" as="geometry" />
        </mxCell>
        <mxCell id="84K2Aqs5wYDGbW6k5flM-8" value="interact(Action ...)" style="edgeLabel;html=1;align=center;verticalAlign=middle;resizable=0;points=[];" vertex="1" connectable="0" parent="1">
          <mxGeometry x="430" y="150" as="geometry" />
        </mxCell>
        <mxCell id="84K2Aqs5wYDGbW6k5flM-9" value="interact(Action ...)" style="edgeLabel;html=1;align=center;verticalAlign=middle;resizable=0;points=[];" vertex="1" connectable="0" parent="1">
          <mxGeometry x="430" y="90" as="geometry" />
        </mxCell>
        <mxCell id="84K2Aqs5wYDGbW6k5flM-10" value="" style="rounded=0;whiteSpace=wrap;html=1;fillColor=none;" vertex="1" parent="1">
          <mxGeometry x="80" y="480" width="480" height="240" as="geometry" />
        </mxCell>
        <mxCell id="84K2Aqs5wYDGbW6k5flM-16" value="" style="rounded=0;whiteSpace=wrap;html=1;fillColor=none;" vertex="1" parent="1">
          <mxGeometry x="440" y="490" width="110" height="220" as="geometry" />
        </mxCell>
        <mxCell id="84K2Aqs5wYDGbW6k5flM-17" value="" style="rounded=0;whiteSpace=wrap;html=1;fillColor=none;" vertex="1" parent="1">
          <mxGeometry x="450" y="670" width="40" height="30" as="geometry" />
        </mxCell>
        <mxCell id="84K2Aqs5wYDGbW6k5flM-18" value="" style="rounded=0;whiteSpace=wrap;html=1;fillColor=none;" vertex="1" parent="1">
          <mxGeometry x="450" y="630" width="40" height="30" as="geometry" />
        </mxCell>
        <mxCell id="84K2Aqs5wYDGbW6k5flM-19" value="" style="rounded=0;whiteSpace=wrap;html=1;fillColor=none;" vertex="1" parent="1">
          <mxGeometry x="450" y="590" width="90" height="30" as="geometry" />
        </mxCell>
        <mxCell id="84K2Aqs5wYDGbW6k5flM-20" value="" style="rounded=0;whiteSpace=wrap;html=1;fillColor=none;" vertex="1" parent="1">
          <mxGeometry x="450" y="500" width="90" height="80" as="geometry" />
        </mxCell>
        <mxCell id="84K2Aqs5wYDGbW6k5flM-22" value="" style="rounded=0;whiteSpace=wrap;html=1;fillColor=none;" vertex="1" parent="1">
          <mxGeometry x="500" y="630" width="40" height="30" as="geometry" />
        </mxCell>
        <mxCell id="84K2Aqs5wYDGbW6k5flM-23" value="" style="rounded=0;whiteSpace=wrap;html=1;fillColor=none;" vertex="1" parent="1">
          <mxGeometry x="500" y="670" width="40" height="30" as="geometry" />
        </mxCell>
        <mxCell id="84K2Aqs5wYDGbW6k5flM-27" value="Layer 0" style="text;html=1;strokeColor=none;fillColor=none;align=center;verticalAlign=middle;whiteSpace=wrap;rounded=0;fontStyle=1" vertex="1" parent="1">
          <mxGeometry x="290" y="450" width="60" height="20" as="geometry" />
        </mxCell>
        <mxCell id="84K2Aqs5wYDGbW6k5flM-28" value="Widget 0" style="text;html=1;strokeColor=none;fillColor=none;align=center;verticalAlign=middle;whiteSpace=wrap;rounded=0;fontStyle=1" vertex="1" parent="1">
          <mxGeometry x="290" y="580" width="60" height="20" as="geometry" />
        </mxCell>
        <mxCell id="84K2Aqs5wYDGbW6k5flM-30" style="rounded=0;orthogonalLoop=1;jettySize=auto;html=1;exitX=1;exitY=0.5;exitDx=0;exitDy=0;entryX=0;entryY=0.25;entryDx=0;entryDy=0;" edge="1" parent="1" source="84K2Aqs5wYDGbW6k5flM-29" target="84K2Aqs5wYDGbW6k5flM-16">
          <mxGeometry relative="1" as="geometry" />
        </mxCell>
        <mxCell id="84K2Aqs5wYDGbW6k5flM-29" value="Widget 1" style="text;html=1;strokeColor=none;fillColor=none;align=center;verticalAlign=middle;whiteSpace=wrap;rounded=0;fontStyle=1" vertex="1" parent="1">
          <mxGeometry x="340" y="500" width="60" height="20" as="geometry" />
        </mxCell>
        <mxCell id="84K2Aqs5wYDGbW6k5flM-32" style="rounded=0;orthogonalLoop=1;jettySize=auto;html=1;exitX=1;exitY=0.5;exitDx=0;exitDy=0;entryX=0;entryY=0.5;entryDx=0;entryDy=0;" edge="1" parent="1" source="84K2Aqs5wYDGbW6k5flM-31" target="84K2Aqs5wYDGbW6k5flM-18">
          <mxGeometry relative="1" as="geometry" />
        </mxCell>
        <mxCell id="84K2Aqs5wYDGbW6k5flM-33" style="rounded=0;orthogonalLoop=1;jettySize=auto;html=1;exitX=1;exitY=0.5;exitDx=0;exitDy=0;entryX=0;entryY=0.5;entryDx=0;entryDy=0;" edge="1" parent="1" source="84K2Aqs5wYDGbW6k5flM-31" target="84K2Aqs5wYDGbW6k5flM-17">
          <mxGeometry relative="1" as="geometry" />
        </mxCell>
        <mxCell id="84K2Aqs5wYDGbW6k5flM-34" style="rounded=0;orthogonalLoop=1;jettySize=auto;html=1;exitX=1;exitY=0.5;exitDx=0;exitDy=0;entryX=0;entryY=0.5;entryDx=0;entryDy=0;" edge="1" parent="1" source="84K2Aqs5wYDGbW6k5flM-31" target="84K2Aqs5wYDGbW6k5flM-20">
          <mxGeometry relative="1" as="geometry" />
        </mxCell>
        <mxCell id="84K2Aqs5wYDGbW6k5flM-35" style="rounded=0;orthogonalLoop=1;jettySize=auto;html=1;exitX=1;exitY=0.5;exitDx=0;exitDy=0;entryX=0;entryY=0.5;entryDx=0;entryDy=0;" edge="1" parent="1" source="84K2Aqs5wYDGbW6k5flM-31" target="84K2Aqs5wYDGbW6k5flM-19">
          <mxGeometry relative="1" as="geometry" />
        </mxCell>
        <mxCell id="84K2Aqs5wYDGbW6k5flM-31" value="Widget 2" style="text;html=1;strokeColor=none;fillColor=none;align=center;verticalAlign=middle;whiteSpace=wrap;rounded=0;fontStyle=1" vertex="1" parent="1">
          <mxGeometry x="360" y="630" width="60" height="20" as="geometry" />
        </mxCell>
        <mxCell id="3lsGzmt_Jtyhfbkj8Jk7-1" value="" style="rounded=0;whiteSpace=wrap;html=1;fillColor=none;" vertex="1" parent="1">
          <mxGeometry x="60" y="400" width="580" height="345" as="geometry" />
        </mxCell>
        <mxCell id="3lsGzmt_Jtyhfbkj8Jk7-3" value="Layer 1" style="text;html=1;strokeColor=none;fillColor=none;align=center;verticalAlign=middle;whiteSpace=wrap;rounded=0;fontStyle=1" vertex="1" parent="1">
          <mxGeometry x="320" y="410" width="60" height="20" as="geometry" />
        </mxCell>
      </root>
    </mxGraphModel>
  </diagram>
</mxfile>
